<svg xmlns="http://www.w3.org/2000/svg" width="188" height="186" viewBox="0 0 188 186"><defs><mask id="7s3jb" width="2" height="2" x="-1" y="-1"><path fill="#fff" d="M38 19h102v101H38z"></path><path d="M42.98 43.81c0-11.046 8.954-20 20-20h51.408c11.046 0 20 8.954 20 20v51.408c0 11.046-8.954 20-20 20H62.98c-11.046 0-20-8.954-20-20z"></path></mask><filter id="7s3ja" width="230" height="253" x="-26" y="-45" filterUnits="userSpaceOnUse"><feGaussianBlur stdDeviation="21.6 21.6"></feGaussianBlur></filter></defs><g><g transform="rotate(-11.65 89 69.5)"><g><g filter="url(#7s3ja)"><path fill="none" d="M42.98 43.81c0-11.046 8.954-20 20-20h51.408c11.046 0 20 8.954 20 20v51.408c0 11.046-8.954 20-20 20H62.98c-11.046 0-20-8.954-20-20z" mask="url(&quot;#7s3jb&quot;)"></path><path fill-opacity=".25" d="M42.98 43.81c0-11.046 8.954-20 20-20h51.408c11.046 0 20 8.954 20 20v51.408c0 11.046-8.954 20-20 20H62.98c-11.046 0-20-8.954-20-20z"></path></g><path fill="#42d77e" d="M42.98 43.81c0-11.046 8.954-20 20-20h51.408c11.046 0 20 8.954 20 20v51.408c0 11.046-8.954 20-20 20H62.98c-11.046 0-20-8.954-20-20z"></path></g><g><g></g><g><path fill="#fff" d="M109.254 76.372a4.57 4.57 0 0 1-4.57 4.57H77.26l-9.141 9.142V53.52a4.57 4.57 0 0 1 4.57-4.57h31.993a4.57 4.57 0 0 1 4.57 4.57z"></path></g></g></g></g></svg>